<?xml version="1.0" encoding="UTF-8" standalone="no"?>
<!-- Created with Inkscape (http://www.inkscape.org/) -->
<svg id="svg4674" xmlns:rdf="http://www.w3.org/1999/02/22-rdf-syntax-ns#" xmlns="http://www.w3.org/2000/svg" height="19.191mm" width="19.191mm" version="1.1" xmlns:cc="http://creativecommons.org/ns#" xmlns:dc="http://purl.org/dc/elements/1.1/" viewBox="0 0 67.999998 67.999998">
 <metadata id="metadata4679">
  <rdf:RDF>
   <cc:Work rdf:about="">
    <dc:format>image/svg+xml</dc:format>
    <dc:type rdf:resource="http://purl.org/dc/dcmitype/StillImage"/>
    <dc:title/>
   </cc:Work>
  </rdf:RDF>
 </metadata>
 <g id="layer1" transform="translate(-363.14 -412.65)">
  <g id="g4636" transform="translate(-659.76 112.35)">
   <rect id="rect177" class="st22" height="68" width="68" y="300.3" x="1022.9" fill="#53647b"/>
   <g fill="#fff">
    <path id="path179" class="st2" d="m1045.8 341.4c2.2 0 4 1.8 4 4s-1.8 4-4 4-4-1.8-4-4 1.8-4 4-4"/>
    <path id="path181" class="st2" d="m1045.8 330.3c2.2 0 4 1.8 4 4s-1.8 4-4 4-4-1.8-4-4 1.8-4 4-4"/>
    <path id="path183" class="st2" d="m1045.8 319.2c2.2 0 4 1.8 4 4s-1.8 4-4 4-4-1.8-4-4 1.8-4 4-4"/>
    <path id="path185" class="st2" d="m1056.9 341.4c2.2 0 4 1.8 4 4s-1.8 4-4 4-4-1.8-4-4 1.8-4 4-4"/>
    <path id="path187" class="st2" d="m1056.9 330.3c2.2 0 4 1.8 4 4s-1.8 4-4 4-4-1.8-4-4 1.8-4 4-4"/>
    <path id="path189" class="st2" d="m1056.9 319.2c2.2 0 4 1.8 4 4s-1.8 4-4 4-4-1.8-4-4 1.8-4 4-4"/>
    <path id="path191" class="st2" d="m1068 341.4c2.2 0 4 1.8 4 4s-1.8 4-4 4-4-1.8-4-4 1.8-4 4-4"/>
    <path id="path193" class="st2" d="m1068 330.3c2.2 0 4 1.8 4 4s-1.8 4-4 4-4-1.8-4-4 1.8-4 4-4"/>
    <path id="path195" class="st2" d="m1068 319.2c2.2 0 4 1.8 4 4s-1.8 4-4 4-4-1.8-4-4 1.8-4 4-4"/>
   </g>
  </g>
 </g>
</svg>
