<?xml version="1.0" encoding="UTF-8" standalone="no"?>
<!-- Created with Inkscape (http://www.inkscape.org/) -->
<svg id="svg4741" xmlns:rdf="http://www.w3.org/1999/02/22-rdf-syntax-ns#" xmlns="http://www.w3.org/2000/svg" height="19.191mm" width="19.191mm" version="1.1" xmlns:cc="http://creativecommons.org/ns#" xmlns:dc="http://purl.org/dc/elements/1.1/" viewBox="0 0 67.999998 67.999998">
 <metadata id="metadata4746">
  <rdf:RDF>
   <cc:Work rdf:about="">
    <dc:format>image/svg+xml</dc:format>
    <dc:type rdf:resource="http://purl.org/dc/dcmitype/StillImage"/>
    <dc:title/>
   </cc:Work>
  </rdf:RDF>
 </metadata>
 <g id="layer1" transform="translate(-431.71 -424.08)">
  <g id="g4648" transform="translate(-671.39 123.78)">
   <rect id="rect175" class="st10" height="68" width="68" y="300.3" x="1103.1" fill="#687d9a"/>
   <g fill="#fff">
    <path id="path197" class="st2" d="m1148.8 319.8h-11.2c-1.8 0-3.2 1.4-3.2 3.2s1.4 3.2 3.2 3.2h11.2c1.8 0 3.2-1.4 3.2-3.2 0-1.7-1.5-3.2-3.2-3.2m0 11.3h-11.2c-1.8 0-3.2 1.4-3.2 3.2s1.4 3.2 3.2 3.2h11.2c1.8 0 3.2-1.4 3.2-3.2s-1.5-3.2-3.2-3.2m0 11.2h-11.2c-1.8 0-3.2 1.4-3.2 3.2s1.4 3.2 3.2 3.2h11.2c1.8 0 3.2-1.4 3.2-3.2s-1.5-3.2-3.2-3.2"/>
    <path id="path199" class="st2" d="m1126.3 341.5c2.2 0 4 1.8 4 4s-1.8 4-4 4-4-1.8-4-4 1.8-4 4-4"/>
    <path id="path201" class="st2" d="m1126.3 330.3c2.2 0 4 1.8 4 4s-1.8 4-4 4-4-1.8-4-4 1.8-4 4-4"/>
    <path id="path203" class="st2" d="m1126.3 319c2.2 0 4 1.8 4 4s-1.8 4-4 4-4-1.8-4-4 1.8-4 4-4"/>
   </g>
  </g>
 </g>
</svg>
